<svg width="800" height="800" viewBox="0 0 800 800" fill="none" xmlns="http://www.w3.org/2000/svg">
<path fill-rule="evenodd" clip-rule="evenodd" d="M400 66.6667C584.096 66.6667 733.333 215.904 733.333 400C733.333 584.094 584.096 733.333 400 733.333C215.906 733.333 66.6666 584.094 66.6666 400C66.6666 215.904 215.906 66.6667 400 66.6667ZM433.406 366.667H366.74V566.667H433.406V366.667ZM400.339 225C376.036 225 358.406 242.532 358.406 266.204C358.406 290.835 375.571 308.333 400.339 308.333C424.143 308.333 441.74 290.835 441.74 266.667C441.74 242.532 424.143 225 400.339 225Z" fill="#FFC107"/>
</svg>
