<svg width="800" height="800" viewBox="0 0 800 800" fill="none" xmlns="http://www.w3.org/2000/svg">
<path fill-rule="evenodd" clip-rule="evenodd" d="M733.333 133.333V666.667H66.6666V133.333H733.333ZM666.667 200H133.333V600H666.667V200ZM600 466.667V516.667H433.333V466.667H600ZM295.833 376.667C344 376.667 383.333 416.667 383.333 466.667H183.333C183.333 416.667 222.508 376.667 270.833 376.667H295.833ZM600 366.667V416.667H433.333V366.667H600ZM283.333 256.187C307.496 256.187 327.083 275.774 327.083 299.937C327.083 324.099 307.496 343.687 283.333 343.687C259.171 343.687 239.583 324.099 239.583 299.937C239.583 275.774 259.171 256.187 283.333 256.187ZM600 266.667V316.667H433.333V266.667H600Z" fill="#212529"/>
</svg>
