<svg width="672" height="800" viewBox="0 0 672 800" fill="none" xmlns="http://www.w3.org/2000/svg">
<path d="M203.226 148.5C244.228 148.5 277.468 115.261 277.468 74.2581C277.468 33.2554 244.228 0.0161438 203.226 0.0161438C162.223 0.0161438 128.984 33.2554 128.984 74.2581C128.984 115.261 162.223 148.5 203.226 148.5Z" fill="#212529"/>
<path d="M644.386 504.046H578.34C606.651 486.155 624.532 457.015 624.532 415.247H644.386C651.818 415.247 657.84 409.224 657.84 401.792C657.84 394.36 651.818 388.338 644.386 388.338H624.532V372.009C624.532 364.825 618.709 359.001 611.524 359.001H463.734L415.842 274.733C421.205 265.221 421.851 253.289 416.493 242.843C410.664 231.48 399.258 224.844 387.329 224.561L374.666 202.281C370.995 195.82 362.788 193.562 356.322 197.232C349.864 200.903 347.6 209.115 351.274 215.576L361.356 233.317L282.042 273.998L245.669 211.147C240.026 196.094 227.266 184.015 210.464 179.957L123.526 158.96C96.6012 152.456 69.5038 169.013 63.0025 195.935L2.8824 444.868C-1.27504 457.053 0.444442 471.008 8.73242 482.099L90.0946 590.965L76.6078 756.351C74.7941 778.57 91.3405 798.049 113.557 799.86C114.671 799.952 115.779 799.997 116.88 799.997C137.683 799.997 155.344 784.013 157.066 762.911L171.793 582.311C172.592 572.508 169.786 562.748 163.895 554.87L92.9415 459.929L105.417 461.845L193.226 576.017L185.756 757.982C184.841 780.254 202.157 799.053 224.43 799.965C224.995 799.989 225.555 800 226.114 800C247.642 800 265.525 783.002 266.416 761.291L274.489 564.683C274.879 555.222 271.927 545.925 266.152 538.42L197.152 448.705L201.468 430.832L187.828 429.134C156.993 425.297 138.009 401.23 134.446 386.153L102.814 252.315L165.87 378.726C171.169 389.347 181.529 395.81 191.816 397.091L325.175 413.686C343.669 415.989 360.42 402.839 362.707 384.463C364.978 366.224 352.102 349.247 333.481 346.93L218.02 332.561L160.919 218.087C180.595 240.618 229.23 296.306 234.238 302.04C346.382 315.995 340.168 314.981 346.352 316.62L394.627 291.861L433.247 359.811C428.228 361.617 424.62 366.369 424.62 372.009V388.338H404.763C397.331 388.338 391.309 394.36 391.309 401.792C391.309 409.224 397.331 415.247 404.763 415.247H424.62C424.62 457.23 442.686 486.273 470.812 504.046H404.766C389.904 504.046 377.857 516.094 377.857 530.955C377.857 545.817 389.904 557.865 404.766 557.865V783.696C404.766 792.702 412.066 800.003 421.073 800.003H628.087C637.093 800.003 644.394 792.702 644.394 783.696V557.865C659.253 557.865 671.303 545.815 671.303 530.955C671.295 516.094 659.247 504.046 644.386 504.046Z" fill="#212529"/>
<path d="M549.642 254.36C549.319 256.061 550.164 257.77 551.711 258.542C553.258 259.317 555.131 258.967 556.299 257.689C565.109 248.045 574.142 234.289 569.49 221.733C562.453 202.741 555.543 194.313 558.637 180.005C558.839 179.071 558.374 178.122 557.513 177.707C556.651 177.293 555.618 177.522 555.015 178.264C549.181 185.433 541.682 198.145 543.878 214.392C546.375 232.884 551.918 242.415 549.642 254.36Z" fill="#212529"/>
<path d="M498.393 324.03C498.07 325.731 498.915 327.44 500.463 328.212C502.01 328.987 503.883 328.637 505.051 327.359C513.861 317.715 522.894 303.962 518.241 291.403C511.205 272.411 504.294 263.98 507.389 249.675C507.591 248.742 507.125 247.792 506.264 247.377C505.403 246.963 504.37 247.192 503.767 247.934C497.933 255.103 490.434 267.815 492.629 284.062C495.124 302.557 500.667 312.086 498.393 324.03Z" fill="#212529"/>
</svg>
