<svg width="542" height="586" viewBox="0 0 542 586" fill="none" xmlns="http://www.w3.org/2000/svg">
<path d="M277.242 110.177L325.752 197.713L424.554 216.895C427.448 216.654 433.342 223.211 427.941 228.625L359.619 301.874L371.894 401.766C372.545 407.061 367.103 411.182 362.039 408.742L271 366.279L179.804 408.815C174.993 411.058 169.337 407.199 170.134 401.531L182.381 301.874L113.75 228.294C110.182 224.469 111.922 217.801 117.843 216.831L216.248 197.713L265.022 109.703C267.763 104.754 274.939 105.099 277.242 110.177ZM315.348 207.139L271 127.115L226.928 206.642C225.917 208.657 223.501 210.678 221.961 210.55L132.182 227.992L194.275 294.563C195.807 296.01 196.654 298.139 196.378 300.389L185.219 391.161L267.965 352.567C269.766 351.68 271.939 351.585 273.899 352.499L356.783 391.161L345.65 300.583C345.348 298.583 345.929 296.469 347.415 294.875L409.819 227.992L320.4 210.62C318.333 210.335 316.437 209.104 315.348 207.139Z" fill="#212529"/>
<path d="M277.242 4.44763L362.499 158.296L535.725 191.935C538.619 191.694 544.513 198.251 539.112 203.665L419.08 332.356L440.601 507.494C441.252 512.789 435.809 516.91 430.746 514.47L271 439.96L111.098 514.542C106.287 516.786 100.631 512.927 101.427 507.259L122.921 332.355L2.57921 203.333C-0.991105 199.505 0.758279 192.837 6.6719 191.87L179.502 158.296L265.022 3.97205C267.763 -0.976452 274.939 -0.63044 277.242 4.44763ZM352.094 167.722L271 21.3855L190.182 167.225C189.171 169.241 186.754 171.261 185.214 171.133L21.0112 203.032L134.814 325.045C136.346 326.492 137.194 328.621 136.917 330.871L116.512 496.891L267.964 426.249C269.765 425.362 271.938 425.268 273.898 426.181L425.489 496.891L405.11 331.066C404.808 329.065 405.388 326.951 406.875 325.357L520.989 203.033L357.147 171.203C355.079 170.919 353.183 169.688 352.094 167.722Z" fill="#212529"/>
<path d="M541.273 198.666C541.273 189.638 527.559 189.638 527.559 198.666V266.371L414.522 387.562C408.387 394.147 418.395 403.481 424.541 396.884L539.119 274.039C540.446 272.788 541.273 271.017 541.273 269.05V198.666ZM440.656 508.33C440.656 499.302 426.942 499.302 426.942 508.33V567.953L273.897 496.569C271.937 495.655 269.765 495.747 267.964 496.633L115.058 567.953V508.33C115.058 499.302 101.343 499.302 101.343 508.33C101.343 517.058 100.463 578.347 101.986 581.613C103.586 585.045 107.667 586.53 111.099 584.93L271 510.345L430.726 584.845C435.482 587.146 440.656 583.677 440.656 578.715L440.656 508.33ZM136.914 330.863C138.005 321.906 124.404 320.247 123.308 329.203L117.456 376.818L14.4411 266.371V198.666C14.4411 189.638 0.726807 189.638 0.726807 198.666L0.728155 269.05C0.728155 270.727 1.33693 272.406 2.56933 273.727L117.163 396.568C122.372 402.531 129.732 396.603 129.272 393.054L136.914 330.863Z" fill="#212529"/>
</svg>
