<svg width="800" height="800" viewBox="0 0 800 800" fill="none" xmlns="http://www.w3.org/2000/svg">
<path d="M169.795 0.782837H205.783V36.3391H238.703V0.782837H274.694V108.453H238.706V72.3969H205.786V108.453H169.798V0.782837H169.795ZM322.017 36.4891H290.338V0.782837H389.703V36.4891H358.008V108.453H322.02V36.4891H322.017ZM405.472 0.782837H443.003L466.083 38.6157L489.144 0.782837H526.68V108.453H490.839V55.0875L466.081 93.3688H465.464L440.689 55.0875V108.453H405.472V0.782837ZM544.594 0.782837H580.591V72.8656H631.202V108.453H544.594V0.782837ZM117.167 157.697L168.645 735.092L399.652 799.217L631.298 735L682.831 157.695L117.167 157.697ZM575.452 294.719L572.228 330.62L570.813 346.539H570.58H400H399.753H299.822L306.294 419.05H399.753H400H545.281H564.366L562.638 438.069L545.997 624.506L544.931 636.463L400 676.633V676.645L399.675 676.738L254.614 636.466L244.691 525.277H277.456H315.78L320.822 581.755L399.688 603.055L399.753 603.034V603.028L478.739 581.716L486.953 489.87H400H399.753H241.528L224.123 294.719L222.428 275.723H399.753H400H577.147L575.452 294.719Z" fill="#FFC107"/>
</svg>
