<svg width="715" height="729" viewBox="0 0 715 729" fill="none" xmlns="http://www.w3.org/2000/svg">
<path d="M71.0625 0.0625V371.938H642.938V0.0625H399.188V25.0625H617.938V325.062H96.0625V25.0625H314.813V0.0625H71.0625ZM342.938 0.0625V25.0625H371.063V0.0625H342.938ZM124.188 53.1875V296.938H589.813V53.1875H124.188ZM67.9844 400.062L0.015625 671.938H714.031L646.063 400.062H599.344L630.594 550.062H474.969L499.969 650.062H212.938L244.188 550.062H83.4531L114.656 400.062H67.9844ZM143.406 400.062L138.875 421.938H186.688L190.281 400.062H143.406ZM219.031 400.062L215.437 421.938H263.406L266.063 400.062H219.031ZM294.344 400.062L291.687 421.938H342.938V400.062H294.344ZM371.063 400.062V421.938H422.312L419.656 400.062H371.063ZM447.938 400.062L450.594 421.938H498.563L494.969 400.062H447.938ZM523.719 400.062L527.313 421.938H575.125L570.594 400.062H523.719ZM133.094 450.062L128.406 471.938H178.25L182 450.062H133.094ZM210.75 450.062L207 471.938H257.156L259.813 450.062H210.75ZM288.094 450.062L285.437 471.938H342.938V450.062H288.094ZM371.063 450.062V471.938H428.562L425.906 450.062H371.063ZM454.188 450.062L456.844 471.938H507L503.25 450.062H454.188ZM532 450.062L535.75 471.938H585.594L580.906 450.062H532ZM122.625 500.062L118.094 521.938H169.969L173.563 500.062H122.625ZM202.313 500.062L198.719 521.938H250.906L253.563 500.062H202.313ZM281.844 500.062L279.187 521.938H342.938V500.062H281.844ZM371.063 500.062V521.938H434.812L432.156 500.062H371.063ZM460.438 500.062L463.094 521.938H515.281L511.688 500.062H460.438ZM540.437 500.062L544.031 521.938H595.906L591.375 500.062H540.437ZM273.563 550.062L251.062 621.938H464.031L446.063 550.062H273.563ZM0.749999 700.062V728.188H713.25V700.062H0.749999Z" fill="#212529"/>
</svg>
