<svg width="38" height="50" viewBox="0 0 38 50" fill="none" xmlns="http://www.w3.org/2000/svg">
<path d="M18.4238 0.0087089C8.16113 0.316326 0.25 9.26945 0.25 19.5361V45.3095C0.25 46.7021 1.93262 47.3984 2.91699 46.414L5.35059 44.6044C6.00098 44.121 6.91309 44.2148 7.45117 44.8202L11.6455 49.5419C12.2559 50.1523 13.2451 50.1523 13.8555 49.5419L17.832 45.0644C18.4541 44.3642 19.5469 44.3642 20.168 45.0644L24.1445 49.5419C24.7549 50.1523 25.7441 50.1523 26.3545 49.5419L30.5488 44.8202C31.0869 44.2148 31.999 44.12 32.6494 44.6044L35.083 46.414C36.0674 47.3984 37.75 46.7011 37.75 45.3095V18.7499C37.75 8.20304 29.042 -0.30965 18.4238 0.0087089ZM12.75 21.8749C11.0244 21.8749 9.625 20.4755 9.625 18.7499C9.625 17.0243 11.0244 15.6249 12.75 15.6249C14.4756 15.6249 15.875 17.0243 15.875 18.7499C15.875 20.4755 14.4756 21.8749 12.75 21.8749ZM25.25 21.8749C23.5244 21.8749 22.125 20.4755 22.125 18.7499C22.125 17.0243 23.5244 15.6249 25.25 15.6249C26.9756 15.6249 28.375 17.0243 28.375 18.7499C28.375 20.4755 26.9756 21.8749 25.25 21.8749Z" fill="#E16428"/>
</svg>
