<svg width="802" height="801" viewBox="0 0 802 801" fill="none" xmlns="http://www.w3.org/2000/svg">
<path d="M645.091 799.667H524.791C523.391 799.833 521.791 799.933 520.158 799.933C502.458 799.933 487.291 789 481.058 773.5L480.958 773.2C436.458 684.167 388.058 596.5 347.758 504.367C317.924 441.533 300.524 367.867 300.524 290.1C300.524 190.367 329.191 97.3333 378.691 18.7667L377.458 20.8667C382.991 11.4667 394.824 0 403.891 0C412.958 0 423.691 12.5333 428.624 22.2667C549.891 264.844 671.291 507.511 792.824 750.267C810.924 785.033 802.591 799.3 762.591 799.7L645.091 799.667ZM158.158 799.667H34.6244C-0.108906 799.667 -7.8089 785.733 7.4911 755.133C69.8689 631.778 131.669 508.656 192.891 385.767C209.591 351 222.791 351 246.091 379.867C307.158 450.833 344.358 543.867 344.358 645.567C344.358 683.833 339.091 720.833 329.258 755.967L329.958 753.1C318.458 797.267 312.191 800.033 267.691 800.033L158.158 799.667Z" fill="#FFC107"/>
</svg>
